<svg id='logo-anim' width="513" height="52" viewBox="0 0 513 52" fill="none" xmlns="http://www.w3.org/2000/svg">

<path d="M31.144 43.944L31.112 49H2.85596V3.14396H31.112V8.19996H9.06396V23.432H26.92V28.296H9.06396V43.944H31.144Z" stroke="white" stroke-width="4" />
<path d="M70.3855 5.44796C70.3855 6.15196 70.1721 6.83463 69.7455 7.49596L43.7935 43.944H70.0015V49H35.6335V46.568C35.6335 46.2266 35.6868 45.9066 35.7935 45.608C35.9215 45.3093 36.0708 45.0213 36.2415 44.744L62.2575 8.19996H36.8495V3.14396H70.3855V5.44796Z" stroke="white" stroke-width="4" />
<path d="M84.5015 49H78.2935V3.14396H84.5015V49Z" stroke="white" stroke-width="4" />
<path d="M128.423 39.528C128.764 39.528 129.063 39.6666 129.319 39.944L131.783 42.6C129.906 44.776 127.623 46.472 124.935 47.688C122.268 48.904 119.036 49.512 115.239 49.512C111.954 49.512 108.967 48.9466 106.279 47.816C103.591 46.664 101.298 45.064 99.399 43.016C97.5003 40.9466 96.0283 38.472 94.983 35.592C93.9376 32.712 93.415 29.544 93.415 26.088C93.415 22.632 93.959 19.464 95.047 16.584C96.135 13.704 97.6603 11.2293 99.623 9.15996C101.607 7.09063 103.975 5.49063 106.727 4.35996C109.479 3.20796 112.519 2.63196 115.847 2.63196C119.111 2.63196 121.991 3.15462 124.487 4.19996C126.983 5.24529 129.18 6.66396 131.079 8.45596L129.031 11.304C128.903 11.5173 128.732 11.6986 128.519 11.848C128.327 11.976 128.06 12.04 127.719 12.04C127.335 12.04 126.866 11.8373 126.311 11.432C125.756 11.0053 125.031 10.536 124.135 10.024C123.239 9.51196 122.119 9.05329 120.775 8.64796C119.431 8.22129 117.778 8.00796 115.815 8.00796C113.447 8.00796 111.282 8.42396 109.319 9.25596C107.356 10.0666 105.66 11.2506 104.231 12.808C102.823 14.3653 101.724 16.264 100.935 18.504C100.146 20.744 99.751 23.272 99.751 26.088C99.751 28.9466 100.156 31.496 100.967 33.736C101.799 35.976 102.919 37.8746 104.327 39.432C105.756 40.968 107.431 42.1413 109.351 42.952C111.292 43.7626 113.383 44.168 115.623 44.168C116.988 44.168 118.215 44.0933 119.303 43.944C120.412 43.7733 121.426 43.5173 122.343 43.176C123.282 42.8346 124.146 42.408 124.935 41.896C125.746 41.3626 126.546 40.7333 127.335 40.008C127.698 39.688 128.06 39.528 128.423 39.528Z" stroke="white" stroke-width="4" />
<path d="M145.189 8.19996V24.232H164.037V29.288H145.189V49H138.981V3.14396H167.237V8.19996H145.189Z" stroke="white" stroke-width="4" />
<path d="M181.376 49H175.168V3.14396H181.376V49Z" stroke="white" stroke-width="4" />
<path d="M219.122 43.784V49H193.106V3.14396H199.282V43.784H219.122Z" stroke="white" stroke-width="4" />
<path d="M273.693 3.14396V49H268.253V15.304C268.253 14.856 268.264 14.376 268.285 13.864C268.328 13.352 268.37 12.8293 268.413 12.296L252.669 40.968C252.178 41.928 251.432 42.408 250.429 42.408H249.533C248.53 42.408 247.784 41.928 247.293 40.968L231.229 12.168C231.357 13.2986 231.421 14.344 231.421 15.304V49H225.981V3.14396H230.557C231.112 3.14396 231.538 3.19729 231.837 3.30396C232.136 3.41063 232.424 3.70929 232.701 4.19996L248.541 32.424C248.797 32.936 249.042 33.4693 249.277 34.024C249.533 34.5786 249.768 35.144 249.981 35.72C250.194 35.144 250.418 34.5786 250.653 34.024C250.888 33.448 251.144 32.904 251.421 32.392L266.973 4.19996C267.229 3.70929 267.506 3.41063 267.805 3.30396C268.125 3.19729 268.562 3.14396 269.117 3.14396H273.693Z" stroke="white" stroke-width="4" />
<path d="M344.842 3.14396L330.538 49H324.97L313.354 14.024C313.248 13.6826 313.141 13.32 313.034 12.936C312.949 12.552 312.853 12.1466 312.746 11.72C312.64 12.1466 312.533 12.552 312.426 12.936C312.32 13.32 312.213 13.6826 312.106 14.024L300.426 49H294.858L280.554 3.14396H285.706C286.261 3.14396 286.72 3.28263 287.082 3.55996C287.466 3.83729 287.712 4.18929 287.818 4.61596L297.29 36.488C297.44 37.064 297.578 37.6826 297.706 38.344C297.856 39.0053 297.994 39.7093 298.122 40.456C298.272 39.7093 298.421 39.0053 298.57 38.344C298.741 37.6613 298.922 37.0426 299.114 36.488L309.898 4.61596C310.026 4.25329 310.272 3.92263 310.634 3.62396C311.018 3.30396 311.477 3.14396 312.01 3.14396H313.802C314.357 3.14396 314.805 3.28263 315.146 3.55996C315.488 3.83729 315.744 4.18929 315.914 4.61596L326.666 36.488C326.858 37.0426 327.029 37.64 327.178 38.28C327.349 38.92 327.509 39.592 327.658 40.296C327.765 39.592 327.882 38.92 328.01 38.28C328.138 37.64 328.277 37.0426 328.426 36.488L337.93 4.61596C338.037 4.23196 338.272 3.89063 338.634 3.59196C339.018 3.29329 339.477 3.14396 340.01 3.14396H344.842Z" stroke="white" stroke-width="4" />
<path d="M393.411 26.088C393.411 29.5226 392.867 32.68 391.779 35.56C390.691 38.4186 389.155 40.8826 387.171 42.952C385.187 45.0213 382.798 46.632 380.003 47.784C377.23 48.9146 374.158 49.48 370.787 49.48C367.417 49.48 364.345 48.9146 361.571 47.784C358.798 46.632 356.419 45.0213 354.435 42.952C352.451 40.8826 350.915 38.4186 349.827 35.56C348.739 32.68 348.195 29.5226 348.195 26.088C348.195 22.6533 348.739 19.5066 349.827 16.648C350.915 13.768 352.451 11.2933 354.435 9.22396C356.419 7.13329 358.798 5.51196 361.571 4.35996C364.345 3.20796 367.417 2.63196 370.787 2.63196C374.158 2.63196 377.23 3.20796 380.003 4.35996C382.798 5.51196 385.187 7.13329 387.171 9.22396C389.155 11.2933 390.691 13.768 391.779 16.648C392.867 19.5066 393.411 22.6533 393.411 26.088ZM387.043 26.088C387.043 23.272 386.659 20.744 385.891 18.504C385.123 16.264 384.035 14.376 382.627 12.84C381.219 11.2826 379.513 10.088 377.507 9.25596C375.502 8.42396 373.262 8.00796 370.787 8.00796C368.334 8.00796 366.105 8.42396 364.099 9.25596C362.094 10.088 360.377 11.2826 358.947 12.84C357.539 14.376 356.451 16.264 355.683 18.504C354.915 20.744 354.531 23.272 354.531 26.088C354.531 28.904 354.915 31.432 355.683 33.672C356.451 35.8906 357.539 37.7786 358.947 39.336C360.377 40.872 362.094 42.056 364.099 42.888C366.105 43.6986 368.334 44.104 370.787 44.104C373.262 44.104 375.502 43.6986 377.507 42.888C379.513 42.056 381.219 40.872 382.627 39.336C384.035 37.7786 385.123 35.8906 385.891 33.672C386.659 31.432 387.043 28.904 387.043 26.088Z" stroke="white" stroke-width="4" />
<path d="M414.997 25.352C416.789 25.352 418.368 25.1386 419.733 24.712C421.12 24.264 422.272 23.6453 423.189 22.856C424.128 22.0453 424.832 21.0853 425.301 19.976C425.771 18.8666 426.005 17.64 426.005 16.296C426.005 13.5653 425.109 11.5066 423.317 10.12C421.525 8.73329 418.837 8.03996 415.253 8.03996H408.469V25.352H414.997ZM436.181 49H430.677C429.547 49 428.715 48.5626 428.181 47.688L416.277 31.304C415.915 30.792 415.52 30.4293 415.093 30.216C414.688 29.9813 414.048 29.864 413.173 29.864H408.469V49H402.293V3.14396H415.253C418.155 3.14396 420.661 3.44263 422.773 4.03996C424.885 4.61596 426.624 5.45863 427.989 6.56796C429.376 7.67729 430.4 9.02129 431.061 10.6C431.723 12.1573 432.053 13.9066 432.053 15.848C432.053 17.4693 431.797 18.984 431.285 20.392C430.773 21.8 430.027 23.0693 429.045 24.2C428.085 25.3093 426.901 26.2586 425.493 27.048C424.107 27.8373 422.528 28.4346 420.757 28.84C421.547 29.288 422.229 29.9386 422.805 30.792L436.181 49Z" stroke="white" stroke-width="4" />
<path d="M448.594 23.24H450.93C451.741 23.24 452.392 23.144 452.882 22.952C453.373 22.7386 453.821 22.3866 454.226 21.896L469.49 4.61596C469.917 4.06129 470.365 3.67729 470.834 3.46396C471.304 3.25063 471.88 3.14396 472.562 3.14396H477.81L460.338 22.888C459.912 23.4 459.496 23.8266 459.09 24.168C458.706 24.488 458.29 24.7546 457.842 24.968C458.418 25.16 458.941 25.448 459.41 25.832C459.88 26.1946 460.338 26.6746 460.786 27.272L479.026 49H473.65C473.245 49 472.893 48.9786 472.594 48.936C472.317 48.872 472.072 48.7866 471.858 48.68C471.645 48.552 471.453 48.4133 471.282 48.264C471.133 48.0933 470.984 47.9013 470.834 47.688L455.026 29.48C454.6 28.9466 454.141 28.5733 453.65 28.36C453.16 28.1253 452.413 28.008 451.41 28.008H448.594V49H442.418V3.14396H448.594V23.24Z" stroke="white" stroke-width="4" />
<path d="M508.249 10.312C508.057 10.632 507.844 10.8773 507.609 11.048C507.396 11.1973 507.129 11.272 506.809 11.272C506.447 11.272 506.02 11.0906 505.529 10.728C505.039 10.3653 504.42 9.97063 503.673 9.54396C502.948 9.09596 502.063 8.69063 501.017 8.32796C499.993 7.96529 498.745 7.78396 497.273 7.78396C495.887 7.78396 494.66 7.97596 493.593 8.35996C492.548 8.72263 491.663 9.22396 490.937 9.86396C490.233 10.504 489.7 11.2613 489.337 12.136C488.975 12.9893 488.793 13.9173 488.793 14.92C488.793 16.2 489.103 17.2666 489.721 18.12C490.361 18.952 491.193 19.6666 492.217 20.264C493.263 20.8613 494.436 21.384 495.737 21.832C497.06 22.2586 498.404 22.7066 499.769 23.176C501.156 23.6453 502.5 24.1786 503.801 24.776C505.124 25.352 506.297 26.088 507.321 26.984C508.367 27.88 509.199 28.9786 509.817 30.28C510.457 31.5813 510.777 33.1813 510.777 35.08C510.777 37.0853 510.436 38.9733 509.753 40.744C509.071 42.4933 508.068 44.0186 506.745 45.32C505.444 46.6213 503.833 47.6453 501.913 48.392C500.015 49.1386 497.849 49.512 495.417 49.512C492.431 49.512 489.721 48.9786 487.289 47.912C484.857 46.824 482.777 45.3626 481.049 43.528L482.841 40.584C483.012 40.3493 483.215 40.1573 483.449 40.008C483.705 39.8373 483.983 39.752 484.281 39.752C484.559 39.752 484.868 39.8693 485.209 40.104C485.572 40.3173 485.977 40.5946 486.425 40.936C486.873 41.2773 487.385 41.6506 487.961 42.056C488.537 42.4613 489.188 42.8346 489.913 43.176C490.66 43.5173 491.503 43.8053 492.441 44.04C493.38 44.2533 494.436 44.36 495.609 44.36C497.081 44.36 498.393 44.1573 499.545 43.752C500.697 43.3466 501.668 42.7813 502.457 42.056C503.268 41.3093 503.887 40.424 504.313 39.4C504.74 38.376 504.953 37.2346 504.953 35.976C504.953 34.5893 504.633 33.4586 503.993 32.584C503.375 31.688 502.553 30.9413 501.529 30.344C500.505 29.7466 499.332 29.2453 498.009 28.84C496.687 28.4133 495.343 27.9866 493.977 27.56C492.612 27.112 491.268 26.6 489.945 26.024C488.623 25.448 487.449 24.7013 486.425 23.784C485.401 22.8666 484.569 21.7253 483.929 20.36C483.311 18.9733 483.001 17.2666 483.001 15.24C483.001 13.6186 483.311 12.0506 483.929 10.536C484.569 9.02129 485.487 7.67729 486.681 6.50396C487.897 5.33063 489.38 4.39196 491.129 3.68796C492.9 2.98396 494.927 2.63196 497.209 2.63196C499.769 2.63196 502.095 3.03729 504.185 3.84796C506.297 4.65863 508.153 5.83196 509.753 7.36796L508.249 10.312Z" stroke="white" stroke-width="4" />
</svg>
